<?xml version="1.0" encoding="utf-8"?>
<!-- Generator: Adobe Illustrator 27.9.0, SVG Export Plug-In . SVG Version: 6.00 Build 0)  -->
<svg version="1.1" id="Layer_1" xmlns="http://www.w3.org/2000/svg" xmlns:xlink="http://www.w3.org/1999/xlink" x="0px" y="0px"
	 viewBox="0 0 595.28 841.89" style="enable-background:new 0 0 595.28 841.89;" xml:space="preserve">
<style type="text/css">
	.st0{clip-path:url(#SVGID_00000072256770621587680640000000553820214671718072_);stroke:#000000;stroke-miterlimit:10;}
	.st1{clip-path:url(#SVGID_00000083809805619207469710000013561667937781449129_);stroke:#000000;stroke-miterlimit:10;}
	.st2{fill:none;}
	.st3{font-family:'MyriadPro-Regular';}
	.st4{font-size:36px;}
</style>
<g>
	<g>
		<g id="_x3C_Mirror_Repeat_x3E__00000160883809677518917340000006452263072891154618_">
			<g>
				<defs>
					<rect id="SVGID_1_" x="309.47" y="316.94" width="58.43" height="172.96"/>
				</defs>
				<clipPath id="SVGID_00000078005934977337518370000017914831565672347309_">
					<use xlink:href="#SVGID_1_"  style="overflow:visible;"/>
				</clipPath>
				
					<path style="clip-path:url(#SVGID_00000078005934977337518370000017914831565672347309_);stroke:#000000;stroke-miterlimit:10;" d="
					M363.4,489.19c-0.04,1.45,0.42-28.69,0.38-27.24c-0.01-7.44,3.63-51.86,3.62-59.3c-0.01-4.89-0.02-9.82-0.87-14.58
					c-2.2-12.24-9.58-21.46-16.61-29.9c-10.2-12.27-20.4-24.53-30.6-36.8c-1.27-1.53-2.61-3.11-4.27-3.72
					c-1.66-0.61-3.72,0.09-4.46,2.16c-1.37,3.85-0.28,8.32,1.38,11.96c4.09,8.97,10.21,15.96,16.42,22.43
					c2.45,2.55,4.93,5.05,7.44,7.49c1.74,1.69,3.5,3.36,5.04,5.36c4.3,5.59,4.34,8.44,6.49,15.9c0.28,0.97,0.51,4.88,0.64,5.9
					c0.21,1.69,0.25,5.01-0.28,6c-0.31,0.56-0.65,0.94-1.06,1.69c-0.46,0.21-1.03,0.16-1.48,0.37c-0.86-0.49-1.64-1.4-2.17-2.5
					c-0.59-1.22-0.73-2.68-1.22-3.97c-0.48-1.26-0.66-2.95-1.13-4.22c-0.45-1.2-0.7-1.89-1.02-3.37c-1.69-7.8-2.67-14.11-6.74-20.15
					c-1.2-1.78-2.57-2.36-3.14-2.67c-1.06-0.59-2.32,0.21-3.04,1.4c-1.62,2.67-1.2,6.54-0.7,9.9c0.42,2.81,0.85,5.63,1.27,8.44
					c0.4,2.64,0.8,4.2,1.5,6.82c0.56,2.08,1.64,6.44,2.47,9.37c0.73,2.56,1.69,5.9,1.86,8.25c0.66,9.15,2.89,18.26,5.51,26.77
					c1.66,5.4,3.85,10.61,4.6,16.35c0.33,2.52,0.37,5.08,0.41,7.64c0.06,3.75,0.12,7.5,0.19,11.25c0.04,2.69,0.09,5.39,0.09,8.08
					c-0.01,5.01-0.18,10.03-0.52,15.02C349.48,489.62,356.71,488.87,363.4,489.19z"/>
			</g>
		</g>
		<g id="_x3C_Mirror_Repeat_x3E__00000098184785219622782450000004739959431765043902_">
			<g>
				<defs>
					<rect id="SVGID_00000084500223491320394950000005937266536079954317_" x="221.9" y="316.94" width="58.43" height="172.96"/>
				</defs>
				<clipPath id="SVGID_00000064330026088973718400000014601626971210672787_">
					<use xlink:href="#SVGID_00000084500223491320394950000005937266536079954317_"  style="overflow:visible;"/>
				</clipPath>
				
					<path style="clip-path:url(#SVGID_00000064330026088973718400000014601626971210672787_);stroke:#000000;stroke-miterlimit:10;" d="
					M226.39,489.19c0.04,1.45-0.42-28.69-0.38-27.24c0.01-7.44-3.63-51.86-3.62-59.3c0.01-4.89,0.02-9.82,0.87-14.58
					c2.2-12.24,9.58-21.46,16.61-29.9c10.2-12.27,20.4-24.53,30.6-36.8c1.27-1.53,2.61-3.11,4.27-3.72
					c1.66-0.61,3.72,0.09,4.46,2.16c1.37,3.85,0.28,8.32-1.38,11.96c-4.09,8.97-10.21,15.96-16.42,22.43
					c-2.45,2.55-4.93,5.05-7.44,7.49c-1.74,1.69-3.5,3.36-5.04,5.36c-4.3,5.59-4.34,8.44-6.49,15.9c-0.28,0.97-0.51,4.88-0.64,5.9
					c-0.21,1.69-0.25,5.01,0.28,6c0.31,0.56,0.65,0.94,1.06,1.69c0.46,0.21,1.03,0.16,1.48,0.37c0.86-0.49,1.64-1.4,2.17-2.5
					c0.59-1.22,0.73-2.68,1.22-3.97c0.48-1.26,0.66-2.95,1.13-4.22c0.45-1.2,0.7-1.89,1.02-3.37c1.69-7.8,2.67-14.11,6.74-20.15
					c1.2-1.78,2.57-2.36,3.14-2.67c1.06-0.59,2.32,0.21,3.04,1.4c1.62,2.67,1.2,6.54,0.7,9.9c-0.42,2.81-0.85,5.63-1.27,8.44
					c-0.4,2.64-0.8,4.2-1.5,6.82c-0.56,2.08-1.64,6.44-2.47,9.37c-0.73,2.56-1.69,5.9-1.86,8.25c-0.66,9.15-2.89,18.26-5.51,26.77
					c-1.66,5.4-3.85,10.61-4.6,16.35c-0.33,2.52-0.37,5.08-0.41,7.64c-0.06,3.75-0.12,7.5-0.19,11.25
					c-0.04,2.69-0.09,5.39-0.09,8.08c0.01,5.01,0.18,10.03,0.52,15.02C240.31,489.62,233.08,488.87,226.39,489.19z"/>
			</g>
		</g>
	</g>
	<path class="st2" d="M373.38,352.4"/>
	<path class="st2" d="M367.9,347.77"/>
	<path class="st2" d="M312.83,315.4"/>
	<path class="st2" d="M317.47,315.4"/>
	<path class="st2" d="M358.83,338.4"/>
	<g>
		<path d="M277.68,340.09c2.55-2.58,3.32-2.9,3.32-2.9v-1.05l1.53-1.05l1.87-0.56h1.59h1.43l0.54-0.71l0.89-1.66l1.34-1.18
			l2.06-0.39l1.88,0.32l1.34,0.71l0.8,0.63l1.07-0.08l0.63-1.18l0.72-1.11l1.34-0.47h1.25l1.16,0.87l0.72,0.95v1.03v0.47v0.47
			l0.89,0.39l0.45,0.16l1.7,0.16l1.61,0.24l1.61,0.55l0.98,1.26l0.54,0.87v1.5l0.67,0.24l0.42,0.56l0.42,0.56l0.92,0.48l0.92,0.4
			l0.42,0.64v0.8v0.4l-0.92,0.4l-0.75,0.48h-0.92l-0.08,1.85l-0.42,1.53l-0.75,2.33l-0.59,1.53l-0.25,1.29l-0.84,0.64l-0.42,1.04
			l-0.59,0.8l-0.42,0.56l-1.84,0.4l0.25,1.53l-0.42,1.85l1.01,2.17l0.75,2.17l0.08,1.37l-0.59,1.04l-0.25,0.64l1.01,2.01l0.08,0.56
			l-0.17,0.56h-0.86l0.19,1.62l-0.19,0.6l0.19,0.6l-0.28,0.6h-0.44h-0.53l0.18,1.19l-0.18,0.64l-0.26,0.48l-0.44,0.48h-0.81h-0.98
			h-1.07l-1.33-0.64h-0.69l-0.44,0.55l-0.35,0.55l0.17,0.4l1.49,1.19l2.19,1.43l0.52,0.71l-0.26,0.71l-0.35,0.55l-0.09,0.55
			l-0.17,0.4h0.14l-0.09,0.81l-0.09,0.57l0.26,0.89l0.86,1.46l1.11,1.46l0.17,1.62l0.34,0.97l0.6-0.49l0.94-0.97l1.46-0.08
			l1.03,0.16l1.46-0.24l1.71,0.16l0.77-0.08l0.94-0.24l1.37-0.24v1.3v0.4l-0.43,0.81l0.43,0.57l-0.6,0.65l-0.43,0.97l-0.34,1.54
			l0.69,0.57l0.69,0.81v1.78l-0.51,0.73l-0.17,0.81h0.69v0.81l0.94,0.32v0.8l-0.71,0.45l-0.27,0.96l0.97,0.6l-0.44,0.82l-0.71,0.58
			h-0.88l-0.8,0.66l-0.09,0.41h-0.97l0.35,0.82v0.78l-0.44,0.32h-0.88h-0.7l-0.35-1.83l-0.09-0.56l-0.61,0.32l-0.09,0.48l-0.18,0.72
			l0.18,0.88l-0.09,1.11l-0.61,0.8l-0.7,0.72l-0.61,0.48l0.09,0.8l0.53,0.64l0.79,0.64l0.26,0.8l0.09,0.88h-0.75h-0.71l-0.53,0.64
			h-0.98h-1.07h-0.71h-0.44l-0.27-1.29l-0.36,0.89l0.28,0.48v1.29l-0.45,0.97l-0.09,0.56l-0.36,0.48l0.18,0.97l-0.09,1.13l0.89,2.01
			l0.89,2.9l0.18,1.61l0.8,2.25l1.33,2.98l1.51,3.62l0.62,2.41l-0.09,1.77l0.71,1.29l0.35,1.93l1.15,1.61l0.53,1.13l-0.09,2.5
			l0.35,1.93l0.15,4.11v0.56l-2.11,2.66l-1.33,1.21l-0.8,2.25l-1.42,0.56l-2.22,3.06l-1.6,1.77l-1.6,1.69l-1.33,1.37l-0.8,1.37
			l-2.93,3.3l-0.18,0.76h-0.71h-0.8h-0.53l0.27,4.47l0.36,1.69l1.15,0.68h1.44l1.11,0.86h1.85l1.13,0.43H303l1.6,0.53l0.53,0.32
			h2.07l0.95,1.1l0.69,0.47l-0.52,1.02l-0.69,0.63h-0.72l-0.27,0.64h-0.8l-10.65,0.43h-3.44l-2.26-0.11l-2.02,0.1l-1.27-0.68
			l-0.69-1l0.05-1.68l0.45-1.13l0.75-1.22l0.4-1.03l0.13-1.57l-0.13-1.63l-0.13-1.27l-0.2-1.21l-0.33,0.13l-0.93,0.05l-0.67,0.06
			l-0.67,0.06l0,0l0,0l0,0l0,0l-0.13,0.28l0,0l0,0l0.62,0.08l-0.62-0.08l0.18,0.64l-0.09,1.53l0.35,0.8v1.05l-0.26,1.45l-0.21,1.13
			v0.89l0.21,0.89l2.4,3.46l0.09,0.8l-0.35,0.49h-0.71l0.09,0.64l-0.53,0.48l-0.89,0.38l-1.32-0.7l-2.76-1.45l-2.75-2.74l-2.22-2.82
			l-2.31-3.54l-2.93-3.94l-0.8-2.09l0.53-0.89l1.33-0.08l1.6,0.8l1.15,0.32l-0.89-0.97l1.33-1.37h-1.15l-1.33,0.08l-1.51-0.16
			l-0.18-1.13l0.62-0.8l0.16-0.97c0.03-0.17,0.08-0.33,0.17-0.49l0.65-1.2l0.49-1.74c0.08-0.28,0.76-1.09,1.06-1.17l0.86-1.15
			l0.8-1.09l-0.73-1.03l1.2-1.87l1.4-2.05l1.53-1.39l0.07-0.85l0.13-0.78l-0.13-0.6l0.24-0.6l0.62-3.92l0.4-3.68l1.2-5.31l0.67-1.69
			l-0.49-0.6l-1.15-0.97l-0.53-0.89l0.89-1.77l0.55-0.85l-0.4-1.15l-0.69-1.71l-1.86-2.58l-1.24-2.01l-0.8-2.33l-0.09-2.33
			l0.27-2.66l-1.95-0.32l-2.84-0.72l-1.95-1.61l-2.04-2.25l-0.44-3.26l0.44-1.89l0.22-1.37l-0.22-0.89l-1.15-1.13l-0.53-1.13
			l-0.02-1.15l-0.42-1.38l-0.27-1.37l0.71-0.77l-0.27-1.37l-0.55-1.61v-1.45l-0.08-0.5l0.2-1.09l0.8-0.84l0.42-1.03l-0.35-0.4
			l-0.98,0.08l-0.91-1.21l0.29-0.88l0.71-0.4l0.49-0.26l0.73-0.3l0.93-0.36l0.87-0.48l0.56-0.07l-0.38-0.94l-0.53-0.8l-0.27-0.48
			l-1.07,0.24l-0.71-0.97l-0.53-0.89l-0.43-1.11l-0.01-0.95l0.76-0.12l0.53,0.16l-0.73-0.9l-0.6-2.47l0.13-2.23l13.95,5.48
			l-0.13,0.96v0.55l-0.64,0.48l-0.67,0.06l0.1,1.12l0.49-0.04l0.48,0.55v0.77l1.34,1.66l0.61,0.15l0.22-0.69l0.06-2.32l9.52-4.89
			l0.69-7.18l-0.06-1.33l-1.4-0.54l-1.43-0.78l-1.22-0.17l-9.61-1.34l0.48-1.33l0.54-1.33l0.96-1.39l1.24-0.85l1.21-0.91l1.44-0.15
			l1.64-0.31l0.91-0.77l0.51-1.02l-0.15-1.18l-0.06-0.82l0.03-1.21l-0.25-0.26l-0.48-0.47l0.06-1l-0.35-0.36l-1.02-0.66l-0.8-0.91
			l-0.61-1.12l-0.32-0.97l-0.19-1.26l-0.17-1.37l-0.26-1.61l-0.17-1.77l-0.17-1.45l-0.17-0.97l-0.26-0.48l-1.28-0.32L277.68,340.09z
			"/>
		<polygon points="287.03,369.06 285.99,368.47 284.99,368.33 284.18,368.23 283.14,368.09 281.51,367.87 280.1,367.68 
			278.95,367.53 278.01,367.4 277.35,367.31 276.75,367.23 276.75,367.83 276.75,368.55 276.75,369.09 276.75,369.87 276.75,370.58 
			277.02,371.24 277.22,371.9 277.61,372.44 277.88,373.46 278.01,374.42 278.21,375.37 278.4,376.21 278.4,376.96 278.54,377.81 
			278.81,378.36 278.88,379.28 278.88,380.41 278.94,381.07 279.14,381.79 279.47,382.21 279.8,382.57 280.2,383.18 280.4,383.48 
			281.42,382.97 282.26,382.56 283.06,382.17 283.73,381.83 283.84,381.13 284.04,380.47 284.51,379.69 284.97,378.91 285.9,378.01 
			286.43,377.23 286.89,377.11 286.89,376.55 286.89,375.76 287.13,375.1 287.13,374.19 287.13,373.17 287.83,372.5 287.83,371.86 
			287.83,371.01 287.83,370.22 		"/>
		<polyline points="286.66,368.53 286.66,368.34 286.89,369.06 286.72,370.45 285.95,372.44 285.95,374.5 286.49,376.91 
			286.09,377.45 285.25,378.62 284.69,379.36 284.02,380.47 283.76,381.53 284.53,381.44 285.33,381.05 286.02,380.7 286.89,380.28 
			287.69,379.88 286.42,380.11 		"/>
		<polygon points="290.66,375.37 290.14,375.37 289.28,374.9 288.71,375.37 288.07,375.66 288.07,376.18 287.64,376.44 
			287.22,376.44 286.89,377.09 286.42,377.21 286.42,377.76 286.42,378.3 286.42,378.84 285.95,379.33 285.95,380.05 285.95,380.7 
			285.95,381.26 285.95,381.8 287.66,380.41 289.36,380.17 290.66,379.75 		"/>
		<polyline points="291.13,371.31 290.75,371.31 290.07,371.31 289.59,371.31 289.25,371.31 289.25,372.17 289.25,372.79 
			289.25,373.22 288.4,373.65 288.7,374.09 289.25,374.09 289.38,374.64 289.32,374.9 290.13,375.35 290.75,374.9 291.16,374.27 
			291.56,373.33 		"/>
		<polyline points="264.52,374.68 264.79,374.07 265.25,373.46 265.65,372.69 266.32,371.96 267.18,371.48 268.05,370.81 
			269.18,370.45 270.47,370.45 271.4,370.45 272.2,370.45 273.33,370.75 274.27,371.18 274.8,371.48 275.26,371.84 275.86,372.57 
			276.46,373.11 276.8,373.77 277.13,374.68 277.46,375.43 277.46,376.08 277.46,376.76 277.46,377.07 277.46,377.5 277.46,377.94 
			277.78,377.94 278.4,378.31 278.4,379.05 278.4,379.6 278.53,380.1 278.03,380.72 275.58,380.72 		"/>
	</g>
	<text transform="matrix(0.9244 0 0 1 225.8305 517.4894)" class="st3 st4">SOCODAF</text>
</g>
</svg>
